<?xml version="1.0" encoding="utf-8"?>
<!-- Generator: Adobe Illustrator 16.0.0, SVG Export Plug-In . SVG Version: 6.00 Build 0)  -->
<!DOCTYPE svg PUBLIC "-//W3C//DTD SVG 1.1//EN" "http://www.w3.org/Graphics/SVG/1.1/DTD/svg11.dtd">
<svg version="1.1" id="Ebene_1" xmlns="http://www.w3.org/2000/svg" xmlns:xlink="http://www.w3.org/1999/xlink" x="0px" y="0px"
	 width="169px" height="43px" viewBox="0 0 169 43" enable-background="new 0 0 169 43" xml:space="preserve">
<path d="M47.8,13.5c4.2,0.7,6.5,4.2,6.7,10.7c0.3,8.899-2.4,13.399-8,13.399s-8.2-3.8-8.2-12C38.3,16.8,41.6,12.6,47.8,13.5z
	 M45.1,9c-2.4,0.3-3.8,0.7-5.4,1.6c-5.6,2.9-8.5,10.7-7.1,19.2S40,42.9,48.3,41.9C56.1,41,60.7,34.5,60.5,24.8
	c-0.3-9-4.5-14.6-11.6-15.6C48.2,9.1,45.7,9,45.1,9z M13.6,4.6c5,0.9,7.3,3.4,7.3,8.3s-1.8,7.3-5.9,8.3c-1.6,0.4-2.2,0.4-5.9,0.5
	H5.7v-8.6V4.5h3.6C12.2,4.5,13.1,4.5,13.6,4.6z M0,20.7v20.6h2.8h2.9v-7.6V26.1h3.9c3.1,0,4.1,0,4.7-0.1c8.2-1.2,12.4-5.4,12.6-12.6
	c0.2-7.5-3.7-11.9-11.8-13.1C13.5,0,12,0,5.9,0H0V20.7z"/>
</svg>
