<svg class="svgText" xmlns="http://www.w3.org/2000/svg" viewBox="0 0 299 120" width="299" height="120" data-desc="24.083"><path class="glyph" d="M18.1 24.6 Q30.9 24.6 37.9 29.9 Q44.9 35.3 44.9 45.9 L44.9 45.9 Q44.9 57.2 37.6 62.7 Q30.3 68.2 18.2 68.2 L18.2 68.2 L9.5 68.2 L9.5 93.5 L0 93.5 L0 24.6 L18.1 24.6 ZM17.8 60.7 Q26.1 60.7 30.5 57.5 Q34.8 54.3 34.8 46 L34.8 46 Q34.8 38.6 30.5 35.3 Q26.1 32 18 32 L18 32 L9.5 32 L9.5 60.7 L17.8 60.7 ZM77.4 39.6 Q88.5 39.6 94.7 47 Q100.8 54.4 100.8 67.1 L100.8 67.1 Q100.8 75.3 98 81.5 Q95.2 87.8 89.9 91.3 Q84.6 94.7 77.3 94.7 L77.3 94.7 Q66.2 94.7 60 87.3 Q53.8 79.9 53.8 67.2 L53.8 67.2 Q53.8 59 56.6 52.8 Q59.4 46.5 64.7 43 Q70 39.6 77.4 39.6 L77.4 39.6 ZM77.4 47 Q63.7 47 63.7 67.2 L63.7 67.2 Q63.7 87.3 77.3 87.3 L77.3 87.3 Q90.9 87.3 90.9 67.1 L90.9 67.1 Q90.9 47 77.4 47 L77.4 47 ZM151.5 81.2 Q151.5 84.4 152.6 86 Q153.7 87.5 155.9 88.3 L155.9 88.3 L153.8 94.7 Q149.7 94.2 147.2 92.4 Q144.7 90.6 143.5 86.8 L143.5 86.8 Q138.2 94.7 127.8 94.7 L127.8 94.7 Q120 94.7 115.5 90.3 Q111 85.9 111 78.8 L111 78.8 Q111 70.4 117 65.9 Q123.1 61.4 134.2 61.4 L134.2 61.4 L142.3 61.4 L142.3 57.5 Q142.3 51.9 139.6 49.5 Q136.9 47.1 131.3 47.1 L131.3 47.1 Q125.5 47.1 117.1 49.9 L117.1 49.9 L114.8 43.2 Q124.6 39.6 133 39.6 L133 39.6 Q142.3 39.6 146.9 44.1 Q151.5 48.7 151.5 57.1 L151.5 57.1 L151.5 81.2 ZM129.9 87.8 Q137.8 87.8 142.3 79.6 L142.3 79.6 L142.3 67.5 L135.4 67.5 Q120.8 67.5 120.8 78.3 L120.8 78.3 Q120.8 83 123.1 85.4 Q125.4 87.8 129.9 87.8 L129.9 87.8 ZM223.3 39.6 Q229.8 39.6 233.7 43.9 Q237.6 48.3 237.6 55.7 L237.6 55.7 L237.6 93.5 L228.4 93.5 L228.4 57 Q228.4 46.8 221 46.8 L221 46.8 Q217.1 46.8 214.4 49 Q211.7 51.3 208.6 56.1 L208.6 56.1 L208.6 93.5 L199.4 93.5 L199.4 57 Q199.4 46.8 192 46.8 L192 46.8 Q188 46.8 185.3 49.1 Q182.6 51.4 179.6 56.1 L179.6 56.1 L179.6 93.5 L170.4 93.5 L170.4 40.8 L178.3 40.8 L179.1 48.5 Q185 39.6 194.3 39.6 L194.3 39.6 Q199.2 39.6 202.7 42.1 Q206.1 44.6 207.6 49.1 L207.6 49.1 Q210.7 44.5 214.5 42 Q218.2 39.6 223.3 39.6 L223.3 39.6 ZM295.9 34.9 L298.6 43.2 Q295.6 44.2 292 44.5 Q288.4 44.8 283.2 44.8 L283.2 44.8 Q292.5 49 292.5 58.1 L292.5 58.1 Q292.5 66 287.1 71 Q281.7 76 272.4 76 L272.4 76 Q268.8 76 265.7 75 L265.7 75 Q264.5 75.8 263.8 77.2 Q263.1 78.5 263.1 79.9 L263.1 79.9 Q263.1 84.2 270 84.2 L270 84.2 L278.4 84.2 Q283.7 84.2 287.8 86.1 Q291.9 88 294.2 91.3 Q296.4 94.6 296.4 98.8 L296.4 98.8 Q296.4 106.5 290.1 110.7 Q283.8 114.8 271.7 114.8 L271.7 114.8 Q263.2 114.8 258.3 113 Q253.3 111.3 251.2 107.8 Q249.1 104.3 249.1 98.8 L249.1 98.8 L257.4 98.8 Q257.4 102 258.6 103.8 Q259.8 105.7 262.9 106.7 Q266 107.6 271.7 107.6 L271.7 107.6 Q280 107.6 283.6 105.5 Q287.1 103.5 287.1 99.4 L287.1 99.4 Q287.1 95.7 284.3 93.8 Q281.5 91.9 276.5 91.9 L276.5 91.9 L268.2 91.9 Q261.5 91.9 258.1 89 Q254.6 86.2 254.6 81.9 L254.6 81.9 Q254.6 79.3 256.1 76.9 Q257.6 74.5 260.4 72.6 L260.4 72.6 Q255.8 70.2 253.7 66.7 Q251.5 63.1 251.5 58 L251.5 58 Q251.5 52.7 254.2 48.5 Q256.8 44.3 261.5 41.9 Q266.1 39.6 271.8 39.6 L271.8 39.6 Q278 39.7 282.2 39.1 Q286.4 38.6 289.2 37.6 Q291.9 36.7 295.9 34.9 L295.9 34.9 ZM271.8 46.2 Q266.6 46.2 263.8 49.4 Q260.9 52.7 260.9 58 L260.9 58 Q260.9 63.4 263.8 66.7 Q266.7 69.9 272 69.9 L272 69.9 Q277.4 69.9 280.3 66.8 Q283.1 63.6 283.1 57.9 L283.1 57.9 Q283.1 46.2 271.8 46.2 L271.8 46.2 Z "></path></svg>