<svg class="svgText" xmlns="http://www.w3.org/2000/svg" viewBox="0 0 2959 1257" width="2959" height="1257" data-desc="23.718"><path class="glyph" d="M83 984 L0 984 L0 328 L187 328 Q261 328 316 346 Q371 364 402 406.5 Q433 449 433 521 L433 521 Q433 624 366 674 Q299 724 191 724 L191 724 L83 724 L83 984 ZM83 395 L83 656 L181 656 Q267 656 308.5 623.5 Q350 591 350 521 L350 521 Q350 450 306.5 422.5 Q263 395 177 395 L177 395 L83 395 ZM747 996 L747 996 Q688 996 636.5 966 Q585 936 553.5 879 Q522 822 522 742 L522 742 Q522 660 553.5 603 Q585 546 636.5 516 Q688 486 747 486 L747 486 Q807 486 858 516 Q909 546 940.5 603 Q972 660 972 742 L972 742 Q972 822 940.5 879 Q909 936 858 966 Q807 996 747 996 ZM747 928 L747 928 Q810 928 848.5 876.5 Q887 825 887 742 L887 742 Q887 658 848.5 606 Q810 554 747 554 L747 554 Q685 554 646 606 Q607 658 607 742 L607 742 Q607 825 646 876.5 Q685 928 747 928 ZM1182 984 L1100 984 L1100 498 L1168 498 L1175 568 L1178 568 Q1210 533 1248 509.5 Q1286 486 1329 486 L1329 486 Q1385 486 1416.5 510.5 Q1448 535 1463 579 L1463 579 Q1501 538 1540 512 Q1579 486 1623 486 L1623 486 Q1698 486 1734.5 534.5 Q1771 583 1771 676 L1771 676 L1771 984 L1689 984 L1689 687 Q1689 619 1667 588 Q1645 557 1599 557 L1599 557 Q1545 557 1477 632 L1477 632 L1477 984 L1395 984 L1395 687 Q1395 619 1373 588 Q1351 557 1304 557 L1304 557 Q1250 557 1182 632 L1182 632 L1182 984 ZM2020 984 L1937 984 L1937 328 L2020 328 L2020 603 L2325 603 L2325 328 L2409 328 L2409 984 L2325 984 L2325 675 L2020 675 L2020 984 ZM2959 984 L2589 984 L2589 328 L2672 328 L2672 913 L2959 913 L2959 984 Z "></path></svg>