<?xml version="1.0" encoding="utf-8"?>
<!-- Generator: Adobe Illustrator 16.0.0, SVG Export Plug-In . SVG Version: 6.00 Build 0)  -->
<!DOCTYPE svg PUBLIC "-//W3C//DTD SVG 1.1//EN" "http://www.w3.org/Graphics/SVG/1.1/DTD/svg11.dtd">
<svg version="1.1" id="Ebene_1" xmlns="http://www.w3.org/2000/svg" xmlns:xlink="http://www.w3.org/1999/xlink" x="0px" y="0px"
	 width="299px" height="91px" viewBox="0 0 299 91" enable-background="new 0 0 299 91" xml:space="preserve">
<path d="M0,34.44v34.44h4.74H9.48V56.221V43.56h5.503c9.68,0,13.576-0.643,18.617-3.074c7.696-3.71,11.206-9.677,11.216-19.066
	C44.829,9.319,38.339,2.408,25.144,0.472C22.474,0.08,19.946,0.003,9.81,0.001L0,0V34.44z M22.736,7.727
	c8.086,1.357,11.721,5.26,12.031,12.92c0.249,6.147-1.546,10.608-5.165,12.835c-3.248,1.999-6.156,2.525-14.391,2.604l-5.73,0.055
	V21.78V7.419l6.03,0.054C20.401,7.517,21.767,7.565,22.736,7.727L22.736,7.727z M294.54,10.876c-6.916,3.092-11.012,3.9-20.94,4.128
	c-4.729,0.109-5.945,0.225-8.009,0.766c-9.318,2.441-15.069,10.684-13.949,19.993c0.624,5.186,3.043,8.851,7.647,11.588
	c1.178,0.7,1.156,0.614,0.301,1.258c-7.859,5.894-6.054,15.797,3.301,18.109c1.946,0.481,2.416,0.512,9.449,0.6
	c6.55,0.084,7.031,0.104,8.158,0.354c4.358,0.963,6.542,3.348,6.542,7.148c0,5.848-5.529,8.527-16.86,8.171
	c-9.06-0.285-12.311-2.274-12.735-7.79l-0.08-1.041h-4.141h-4.141l0.076,1.41c0.522,9.66,6.032,13.832,19.221,14.553
	c17.726,0.968,27.962-4.833,27.954-15.844c-0.006-7.493-4.936-12.643-13.734-14.346c-0.829-0.16-2.293-0.216-7.8-0.293
	c-8.194-0.113-9.003-0.231-10.44-1.523c-1.955-1.758-1.421-5.717,1.005-7.444l0.375-0.267l1.058,0.291
	c3.508,0.967,9.084,0.861,12.925-0.244c7.023-2.02,11.75-7.408,12.604-14.366c0.852-6.94-1.768-11.999-7.927-15.31l-1.14-0.613
	l2.28-0.003c3.803-0.006,8.172-0.361,10.439-0.849c0.912-0.196,2.388-0.618,2.499-0.714c0.108-0.094-2.522-8.282-2.656-8.266
	c-0.045,0.005-0.623,0.251-1.282,0.547V10.876z M75.24,15.069c-0.23,0.026-0.905,0.107-1.5,0.179
	C61.42,16.748,53.873,27.124,53.846,42.6c-0.028,16.005,7.528,26.014,20.663,27.371c16.053,1.658,26.79-10.078,26.249-28.691
	c-0.432-14.867-7.354-24.247-19.175-25.985C80.395,15.12,76.122,14.968,75.24,15.069L75.24,15.069z M129.3,15.19
	c-3.301,0.32-6.247,0.877-9.52,1.798c-1.713,0.483-4.712,1.474-4.854,1.605c-0.069,0.063,1.385,4.552,2.127,6.564
	c0.035,0.094,0.521-0.011,1.529-0.33c10.078-3.193,17.79-3.059,21.224,0.368c1.904,1.9,2.511,4.123,2.513,9.214l0.001,2.43h-5.31
	c-11.346,0.001-17.019,1.503-21.403,5.667c-5.552,5.273-6.222,15.465-1.426,21.692c6.314,8.2,21.431,7.874,28.254-0.609
	c1.149-1.429,1.044-1.401,1.447-0.364c1.237,3.18,3.177,4.998,6.549,6.137c0.985,0.334,3.242,0.803,3.348,0.697
	c0.077-0.078,2.12-6.36,2.079-6.393c-0.021-0.016-0.277-0.122-0.568-0.236c-1.295-0.505-2.572-1.652-3.084-2.771
	c-0.701-1.53-0.677-0.994-0.764-16.921l-0.079-14.64l-0.318-1.453C148.965,18.176,141.66,13.991,129.3,15.19L129.3,15.19z
	 M191.82,15.174c-4.576,0.632-8.854,3.349-11.88,7.546c-0.542,0.752-0.85,1.09-0.868,0.952c-0.058-0.445-0.752-7.217-0.752-7.342
	c0-0.092-1.173-0.131-3.96-0.131h-3.96c0,0,0,18.116,0,26.34s0,26.34,0,26.34h4.62h4.62V50.15V31.421l0.87-1.281
	c3.84-5.653,6.651-7.68,10.95-7.899c4.785-0.244,7.383,2.524,7.852,8.363c0.084,1.044,0.128,7.987,0.128,19.938v18.336H204h4.56
	V50.214V31.55l0.824-1.226c3.478-5.173,6.153-7.379,9.637-7.944c5.274-0.855,8.341,1.475,9.159,6.958
	c0.153,1.024,0.179,4.004,0.18,20.37c0,0,0.001,5.667,0.001,10.042s0,9.128,0,9.128h4.62h4.62v-19.53
	c0-20.852-0.006-21.083-0.59-23.49c-1.861-7.67-8.097-11.767-16.257-10.681c-4.816,0.641-8.903,3.387-12.479,8.383
	c-0.54,0.755-0.688,0.898-0.75,0.72C205.243,17.638,199.229,14.151,191.82,15.174L191.82,15.174z M275.293,21.951
	c5.287,1.178,7.699,4.685,7.72,11.228c0.025,7.995-3.651,12.057-10.912,12.057c-7.093,0-11.121-4.247-11.15-11.757
	C260.916,24.88,266.89,20.079,275.293,21.951L275.293,21.951z M79.597,22.567c7.721,1.147,11.195,7.41,11.177,20.152
	C90.754,56.505,86.316,62.874,76.92,62.6c-8.989-0.262-13.124-6.539-13.136-19.94C63.77,28.089,69.318,21.04,79.597,22.567
	L79.597,22.567z M142.291,48.947l0.03,6.048l-0.562,0.912c-3.96,6.426-10.941,9.052-16.72,6.288
	c-4.597-2.196-5.771-10.952-2.039-15.207c2.783-3.175,6.496-4.136,15.839-4.103l3.42,0.013L142.291,48.947L142.291,48.947z
	 M110.283,9.284c-2.734,2.733-7.166,2.733-9.899,0c-2.734-2.734-2.734-7.166,0-9.9c2.734-2.733,7.166-2.733,9.899,0
	C113.017,2.118,113.017,6.549,110.283,9.284z"/>
</svg>
